<?xml version="1.0" standalone="no"?>
<!DOCTYPE svg PUBLIC "-//W3C//DTD SVG 20010904//EN"
 "http://www.w3.org/TR/2001/REC-SVG-20010904/DTD/svg10.dtd">
<svg version="1.0" xmlns="http://www.w3.org/2000/svg"
 width="1125.000000pt" height="817.000000pt" viewBox="0 0 1125.000000 817.000000"
 preserveAspectRatio="xMidYMid meet">
<metadata>
Created by potrace 1.16, written by Peter Selinger 2001-2019
</metadata>
<g transform="translate(0.000000,817.000000) scale(0.100000,-0.100000)"
fill="#000000" stroke="none">
<path d="M4600 7180 c-673 -62 -1557 -780 -2185 -1775 -346 -548 -609 -1191
-704 -1722 -93 -519 -15 -946 217 -1179 280 -282 758 -281 1382 1 166 75 332
167 585 325 247 154 335 205 481 278 225 113 439 191 634 233 136 29 350 32
455 6 313 -79 500 -331 571 -775 19 -114 23 -351 14 -722 -6 -227 1 -267 77
-420 40 -82 60 -108 142 -190 76 -76 114 -105 186 -142 409 -213 963 -132
1567 229 676 403 1164 1064 1397 1893 215 766 207 1667 -24 2485 -67 240 -159
456 -256 605 -64 97 -200 228 -284 272 -250 130 -542 91 -975 -131 -74 -37
-272 -148 -440 -245 -469 -273 -705 -382 -917 -425 -319 -65 -564 31 -764 301
-60 80 -157 264 -204 383 -74 191 -89 225 -130 295 -97 165 -207 270 -360 345
-137 66 -290 91 -465 75z"/>
</g>
</svg>
