<?xml version="1.0" standalone="no"?>
<!DOCTYPE svg PUBLIC "-//W3C//DTD SVG 20010904//EN"
 "http://www.w3.org/TR/2001/REC-SVG-20010904/DTD/svg10.dtd">
<svg version="1.0" xmlns="http://www.w3.org/2000/svg"
 width="300.000000pt" height="300.000000pt" viewBox="0 0 300.000000 300.000000"
 preserveAspectRatio="xMidYMid meet">
<metadata>
Created by potrace 1.16, written by Peter Selinger 2001-2019
</metadata>
<g transform="translate(0.000000,300.000000) scale(0.100000,-0.100000)"
fill="#000000" stroke="none">
<path d="M1 2338 c1 -605 2 -656 15 -583 112 633 596 1117 1229 1229 73 13 22
14 -582 15 l-663 1 1 -662z"/>
<path d="M1755 2984 c633 -112 1117 -596 1229 -1229 13 -73 14 -22 15 583 l1
662 -662 -1 c-605 -1 -656 -2 -583 -15z"/>
<path d="M1957 2439 l-117 -70 -73 25 c-39 13 -103 30 -141 37 -88 15 -290 6
-371 -16 -79 -22 -208 -83 -283 -134 -34 -22 -68 -41 -76 -41 -8 0 -63 12
-121 26 -181 43 -190 32 -140 -168 l36 -142 -44 -95 c-75 -160 -107 -309 -107
-494 0 -530 325 -871 852 -894 320 -14 620 64 796 207 35 29 64 50 66 48 1 -1
14 -22 28 -44 51 -80 214 -198 290 -211 21 -3 38 -9 38 -13 0 -15 -166 -153
-255 -212 -192 -128 -388 -202 -635 -241 -14 -2 273 -5 638 -6 l662 -1 -1 663
c-1 604 -2 655 -15 582 -8 -44 -25 -119 -39 -166 -24 -85 -96 -264 -113 -281
-5 -5 -25 -1 -48 8 -31 13 -59 15 -142 11 l-103 -6 -38 34 c-21 19 -50 52 -65
74 -24 35 -27 47 -23 93 3 29 15 87 26 128 82 285 -16 684 -231 941 l-49 59
-7 164 c-7 140 -10 168 -26 185 -11 12 -26 21 -35 21 -9 0 -69 -32 -134 -71z
m-282 -179 c134 -42 253 -131 331 -247 21 -32 42 -62 45 -67 4 -5 42 4 84 19
64 24 78 26 86 14 15 -24 11 -27 -71 -54 -73 -24 -79 -28 -69 -46 9 -18 17
-19 80 -13 60 6 69 4 69 -10 0 -16 -13 -20 -84 -30 -47 -6 -50 -9 -37 -34 7
-13 26 -22 58 -26 83 -12 92 -17 75 -43 -5 -9 -21 -8 -64 2 l-56 13 -4 -107
c-3 -89 -8 -115 -30 -163 -88 -189 -342 -292 -718 -292 -210 0 -322 31 -418
119 -66 59 -122 186 -122 278 l0 37 -50 -25 c-59 -30 -80 -32 -80 -7 0 13 18
26 63 44 47 19 63 31 65 48 4 22 2 22 -67 18 -61 -3 -71 -1 -71 13 0 13 14 18
68 24 60 6 81 16 82 37 0 4 -26 9 -57 13 -93 10 -103 13 -103 36 0 18 4 20 33
15 17 -3 55 -8 83 -12 l51 -6 22 61 c59 161 202 308 364 372 135 54 306 61
442 19z"/>
<path d="M1 663 l-1 -663 663 1 c604 1 655 2 582 15 -633 112 -1117 596 -1229
1229 -13 73 -14 22 -15 -582z"/>
</g>
</svg>
