<?xml version="1.0" standalone="no"?>
<!DOCTYPE svg PUBLIC "-//W3C//DTD SVG 20010904//EN"
 "http://www.w3.org/TR/2001/REC-SVG-20010904/DTD/svg10.dtd">
<svg version="1.0" xmlns="http://www.w3.org/2000/svg"
 width="300.000000pt" height="300.000000pt" viewBox="0 0 300.000000 300.000000"
 preserveAspectRatio="xMidYMid meet">
<metadata>
Created by potrace 1.16, written by Peter Selinger 2001-2019
</metadata>
<g transform="translate(0.000000,300.000000) scale(0.100000,-0.100000)"
fill="#000000" stroke="none">
<path d="M0 1500 l0 -1500 1500 0 1500 0 0 1500 0 1500 -1500 0 -1500 0 0
-1500z m2131 1001 c22 -18 24 -27 30 -186 7 -159 9 -168 33 -198 113 -139 182
-263 226 -407 46 -152 54 -206 54 -360 -1 -128 -4 -155 -27 -233 -40 -129 -37
-150 27 -231 47 -58 67 -64 176 -59 95 5 169 -9 177 -33 5 -14 -121 -203 -183
-276 -35 -40 -56 -57 -74 -57 -67 -2 -270 136 -320 216 l-25 40 -46 -41 c-69
-61 -149 -105 -257 -142 -157 -53 -269 -69 -487 -68 -174 0 -199 3 -290 27
-153 41 -270 104 -370 199 -173 164 -250 349 -262 629 -9 210 24 379 108 558
l39 84 -36 140 -36 139 19 27 c27 35 53 36 171 7 55 -15 107 -26 116 -26 8 0
44 20 80 45 231 162 567 203 824 100 l40 -16 113 70 c63 39 124 71 135 71 12
0 32 -8 45 -19z"/>
<path d="M1340 2264 c-203 -43 -399 -217 -467 -412 l-18 -54 -60 7 c-33 3 -71
9 -84 12 -17 4 -22 2 -19 -8 3 -9 29 -16 78 -21 40 -4 75 -10 78 -12 2 -3 2
-16 -2 -29 -5 -22 -13 -25 -76 -31 -91 -9 -91 -22 0 -18 69 4 70 3 70 -21 0
-30 -11 -40 -70 -63 -49 -19 -67 -31 -58 -39 3 -3 30 5 61 19 30 13 58 22 61
18 3 -3 6 -22 6 -43 0 -20 9 -66 20 -101 64 -207 253 -301 573 -284 346 19
555 112 643 286 24 48 28 70 32 167 l5 113 26 -6 c14 -3 41 -10 58 -14 18 -5
35 -5 38 0 6 10 -11 17 -69 25 -51 8 -76 26 -76 55 0 19 26 30 75 30 17 0 37
5 45 11 11 7 -6 8 -57 4 -72 -7 -73 -7 -83 20 -5 14 -10 28 -10 30 0 3 34 14
75 26 43 13 75 28 75 35 0 9 -19 6 -72 -12 -39 -13 -77 -24 -84 -24 -7 0 -26
25 -44 56 -17 31 -60 84 -96 120 -144 142 -366 203 -574 158z"/>
</g>
</svg>
