<?xml version="1.0" standalone="no"?>
<!DOCTYPE svg PUBLIC "-//W3C//DTD SVG 20010904//EN"
 "http://www.w3.org/TR/2001/REC-SVG-20010904/DTD/svg10.dtd">
<svg version="1.0" xmlns="http://www.w3.org/2000/svg"
 width="2400.000000pt" height="2453.000000pt" viewBox="0 0 2400.000000 2453.000000"
 preserveAspectRatio="xMidYMid meet">
<metadata>
Created by potrace 1.16, written by Peter Selinger 2001-2019
</metadata>
<g transform="translate(0.000000,2453.000000) scale(0.100000,-0.100000)"
fill="#000000" stroke="none">
<path d="M7160 24525 c0 -6 6179 -9000 6184 -9000 1 0 1739 2018 3861 4485
2121 2467 3864 4493 3873 4503 14 16 -317 17 -6951 17 -3832 0 -6967 -2 -6967
-5z"/>
<path d="M18760 19339 c-2456 -2854 -4464 -5195 -4462 -5201 3 -10 9676
-14093 9693 -14113 5 -5 9 5434 9 12248 l0 12257 -388 0 -387 0 -4465 -5191z"/>
<path d="M0 12265 l0 -12250 29 30 c40 43 9331 10844 9331 10849 0 5 -9338
13597 -9351 13611 -5 5 -9 -4904 -9 -12240z"/>
<path d="M2913 22898 c14 -18 1997 -2854 4407 -6303 2411 -3448 5767 -8249
7457 -10668 l3075 -4397 1620 0 1620 0 -45 63 c-24 34 -2779 3975 -6122 8757
-3344 4782 -6689 9568 -7435 10635 l-1357 1940 -1622 3 -1622 2 24 -32z"/>
<path d="M6216 4759 c-2248 -2613 -4085 -4753 -4083 -4755 2 -2 3313 -3 7358
-2 l7354 3 -3265 4752 c-1796 2614 -3268 4753 -3271 4753 -3 0 -1845 -2138
-4093 -4751z"/>
</g>
</svg>
