<?xml version="1.0" standalone="no"?>
<!DOCTYPE svg PUBLIC "-//W3C//DTD SVG 20010904//EN"
 "http://www.w3.org/TR/2001/REC-SVG-20010904/DTD/svg10.dtd">
<svg version="1.0" xmlns="http://www.w3.org/2000/svg"
 width="794.000000pt" height="178.000000pt" viewBox="0 0 794.000000 178.000000"
 preserveAspectRatio="xMidYMid meet">
<metadata>
Created by potrace 1.16, written by Peter Selinger 2001-2019
</metadata>
<g transform="translate(0.000000,178.000000) scale(0.100000,-0.100000)"
fill="#000000" stroke="none">
<path d="M810 1764 c-483 -21 -566 -35 -650 -111 -109 -98 -119 -137 -151
-604 -11 -160 -9 -232 16 -544 19 -241 55 -332 159 -402 76 -52 149 -65 451
-83 247 -15 1026 -15 1274 0 349 21 423 40 506 132 68 76 88 154 110 428 5 58
5 561 0 620 -15 184 -30 281 -55 337 -39 90 -107 152 -194 178 -73 22 -215 34
-584 50 -400 17 -480 17 -882 -1z m565 -699 c160 -91 293 -170 297 -173 6 -7
-619 -373 -648 -380 -12 -3 -14 61 -14 371 0 205 3 377 7 380 3 4 20 -2 37
-12 17 -10 162 -94 321 -186z"/>
<path d="M6470 920 l0 -790 105 0 104 0 10 38 c6 20 11 44 11 52 0 8 14 -2 31
-23 49 -59 100 -81 191 -82 69 0 80 3 119 30 51 36 90 106 110 198 19 87 20
627 0 713 -31 143 -96 204 -216 204 -78 -1 -130 -24 -183 -85 l-42 -48 0 292
0 291 -120 0 -120 0 0 -790z m390 150 c41 -22 53 -106 54 -370 0 -266 -9 -343
-47 -378 -37 -34 -83 -33 -126 4 l-31 26 0 310 c0 266 2 315 16 344 30 63 86
90 134 64z"/>
<path d="M2790 1638 c0 -6 63 -239 140 -517 l140 -506 0 -242 0 -243 125 0
125 0 0 244 0 245 141 501 c77 276 143 508 146 516 4 12 -17 14 -124 14 l-129
0 -39 -177 c-21 -98 -57 -267 -80 -377 l-41 -199 -13 69 c-6 38 -41 205 -77
372 -35 167 -64 305 -64 308 0 2 -56 4 -125 4 -88 0 -125 -3 -125 -12z"/>
<path d="M4980 1545 l0 -105 120 0 120 0 0 -655 0 -655 125 0 125 0 0 655 0
655 125 0 125 0 0 105 0 105 -370 0 -370 0 0 -105z"/>
<path d="M3753 1241 c-71 -24 -113 -59 -147 -121 -50 -92 -58 -137 -63 -381
-8 -331 13 -449 94 -539 62 -69 109 -85 253 -85 95 0 123 4 161 21 92 43 142
121 170 265 19 98 16 495 -4 588 -31 138 -87 214 -184 251 -70 26 -206 27
-280 1z m184 -173 c33 -26 38 -82 38 -388 0 -266 -2 -310 -17 -343 -29 -64
-96 -70 -135 -10 -16 25 -18 56 -18 353 0 269 3 330 15 355 25 49 78 64 117
33z"/>
<path d="M7482 1242 c-99 -36 -158 -116 -186 -255 -21 -102 -22 -492 -2 -600
26 -134 76 -210 166 -251 68 -31 244 -30 316 2 97 44 148 124 160 249 l7 70
-63 6 c-35 4 -87 7 -116 7 l-54 0 0 -39 c0 -96 -27 -141 -86 -141 -78 0 -94
35 -94 203 l0 107 206 0 206 0 -5 208 c-5 236 -17 295 -74 362 -56 65 -101 83
-223 87 -84 3 -115 0 -158 -15z m175 -167 c32 -23 43 -75 43 -207 l0 -118 -85
0 -85 0 0 118 c0 64 5 134 10 154 12 40 42 68 75 68 11 0 30 -7 42 -15z"/>
<path d="M4362 763 c4 -524 5 -527 65 -594 94 -104 289 -70 373 64 l18 29 6
-29 c3 -15 8 -45 12 -65 l6 -38 99 0 99 0 0 555 0 555 -125 0 -125 0 0 -440 0
-440 -27 -30 c-32 -35 -88 -49 -115 -28 -32 24 -38 112 -38 529 l0 409 -125 0
-126 0 3 -477z"/>
<path d="M5642 763 c4 -530 4 -532 70 -601 91 -93 291 -60 362 61 27 44 29 41
41 -46 l6 -47 100 0 99 0 0 555 0 555 -125 0 -125 0 0 -443 0 -443 -27 -26
c-50 -48 -110 -49 -131 -2 -9 18 -12 155 -12 469 l0 445 -131 0 -130 0 3 -477z"/>
</g>
</svg>
